# xmcd CD database file
#
# Track frame offsets:
#	150
#	12589
#	24337
#	40498
#	57540
#	75038
#	95763
#	108982
#	122281
#	138348
#	151662
#	164038
#	184636
#	202710
#
# Disc length: 2851 seconds
#
# Revision: 0
# Processed by: cddbd v1.5.2PL0 Copyright (c) Steve Scherf et al.
# Submitted via: CDex 1.91
#
DISCID=a70b210e
DTITLE=Hank Williams Jr. - A Country Boy Can Survive [CD2]
DYEAR=2016
DGENRE=Country
TTITLE0=If Heaven Ain't A Lot Like Dixie
TTITLE1=Gonna Go Huntin' Tonight
TTITLE2=Leave Them Boys Alone
TTITLE3=Queen Of My Heart
TTITLE4=The Conversation
TTITLE5=Man Of Steel
TTITLE6=Attitude Adjustment
TTITLE7=All My Rowdy Friends Are Coming Over Tonight
TTITLE8=Major Moves 
TTITLE9=I'm For Love
TTITLE10=This Ain't Dallas
TTITLE11=Ain't Misbehavin' 
TTITLE12=Country State Of Mind
TTITLE13=Mind Your Own Business
EXTD=YEAR: 2016
EXTT0=
EXTT1=
EXTT2=
EXTT3=
EXTT4=
EXTT5=
EXTT6=
EXTT7=
EXTT8=
EXTT9=
EXTT10=
EXTT11=
EXTT12=
EXTT13=
PLAYORDER=
